<svg id="Layer_1" data-name="Layer 1" xmlns="http://www.w3.org/2000/svg" xmlns:xlink="http://www.w3.org/1999/xlink" viewBox="0 0 1920 772.85"><defs><style>.cls-1{opacity:0.83;isolation:isolate;fill:url(#linear-gradient);}.cls-2{fill:#fff;opacity:0.14;}</style><linearGradient id="linear-gradient" y1="23.42" x2="1920" y2="23.42" gradientTransform="matrix(1, 0, 0, -1, 0, 410)" gradientUnits="userSpaceOnUse"><stop offset="0" stop-color="#4c84ff"/><stop offset="1" stop-color="#2bb0fd"/></linearGradient></defs><title>footer</title><path class="cls-1" d="M1919.9.15c-139.35,22.7-154,211.68-289,217.57-132,5.75-177.59-171.84-308.54-164.24-133.94,7.77-158.73,197.8-292.53,204.76-128.9,6.7-175.33-166-304-155.7C605.81,112.18,584,267.75,463.08,271c-96.53,2.62-126.9-95.29-235.4-106.65C126.22,153.76,60.28,227,0,288.1V773H1920" transform="translate(0 -0.15)"/><circle class="cls-2" cx="235" cy="386.85" r="32"/><circle class="cls-2" cx="147" cy="498.85" r="71"/><circle class="cls-2" cx="1831" cy="247.85" r="53"/><circle class="cls-2" cx="260" cy="562.85" r="32"/></svg>