<svg id="Layer_1" data-name="Layer 1" xmlns="http://www.w3.org/2000/svg" viewBox="0 0 1920 1138"><defs><style>.cls-1,.cls-2,.cls-3,.cls-4,.cls-5,.cls-6,.cls-7,.cls-8,.cls-9{fill:none;}.cls-1{stroke:#ced007;opacity:0.35;}.cls-1,.cls-2,.cls-3,.cls-5,.cls-6,.cls-7,.cls-8,.cls-9{stroke-miterlimit:10;}.cls-1,.cls-2,.cls-5,.cls-6{stroke-width:2px;}.cls-2,.cls-6{stroke:#2bb0fd;}.cls-2,.cls-8{opacity:0.28;}.cls-3{stroke:#9fd915;stroke-width:3px;opacity:0.48;}.cls-5{stroke:#f48f23;opacity:0.3;}.cls-6{opacity:0.73;}.cls-7{stroke:#0fc565;opacity:0.69;}.cls-8{stroke:#ff931e;}.cls-9{stroke:#0ae4f2;opacity:0.32;}</style></defs><title>pattern-01</title><line class="cls-1" x1="908.86" y1="583.17" x2="974.25" y2="517.78"/><line class="cls-2" x1="1464.65" y1="225.88" x2="1537.04" y2="153.49"/><circle class="cls-3" cx="658.92" cy="711.46" r="25.69"/><rect class="cls-4" x="273.57" y="257" width="1649.09" height="993.78"/><polygon class="cls-5" points="711 556.94 724.54 512.21 679.04 522.85 711 556.94"/><line class="cls-6" x1="277.01" y1="959.56" x2="319.04" y2="917.52"/><line class="cls-2" x1="1848.62" y1="891.84" x2="1921.01" y2="819.45"/><line class="cls-7" x1="585.26" y1="352.4" x2="679.83" y2="257.82"/><line class="cls-8" x1="1131.7" y1="420.12" x2="1179.57" y2="372.25"/><path class="cls-9" d="M1546.2,400.27a30.36,30.36,0,0,0-30.35-30.36"/><line class="cls-2" x1="175.6" y1="741.96" x2="247.99" y2="669.57"/><rect class="cls-4" x="-1015.48" y="773.08" width="1649.09" height="993.78"/><path class="cls-9" d="M257.16,916.36A30.36,30.36,0,0,0,226.8,886"/><circle class="cls-3" cx="1700.5" cy="762.98" r="25.69"/><polygon class="cls-5" points="1421.59 572.46 1435.13 527.73 1389.63 538.37 1421.59 572.46"/><line class="cls-2" x1="1308.19" y1="975.49" x2="1380.58" y2="903.09"/><rect class="cls-4" x="117.11" y="1006.61" width="1649.09" height="993.78"/><line class="cls-7" x1="428.8" y1="1102.01" x2="523.37" y2="1007.43"/><line class="cls-8" x1="975.24" y1="1169.73" x2="1023.11" y2="1121.86"/><path class="cls-9" d="M1389.74,1149.88a30.36,30.36,0,0,0-30.36-30.36"/><rect class="cls-4" x="1527.59" y="-396.87" width="1649.09" height="993.78"/><line class="cls-6" x1="1531.02" y1="305.7" x2="1573.06" y2="263.66"/><line class="cls-1" x1="873.83" y1="445.39" x2="939.22" y2="380"/><line class="cls-2" x1="1429.62" y1="88.1" x2="1502.01" y2="15.71"/><circle class="cls-3" cx="347.89" cy="517.68" r="25.69"/><polygon class="cls-5" points="274.97 361.16 288.51 316.43 243.01 327.07 274.97 361.16"/><line class="cls-6" x1="241.98" y1="821.78" x2="284.01" y2="779.75"/><line class="cls-2" x1="1813.59" y1="754.06" x2="1885.98" y2="681.67"/><line class="cls-7" x1="550.23" y1="214.62" x2="644.81" y2="120.04"/><line class="cls-8" x1="1096.67" y1="282.34" x2="1144.54" y2="234.47"/><path class="cls-9" d="M1511.17,262.49a30.35,30.35,0,0,0-30.35-30.35"/><polyline class="cls-4" points="3055.24 1484.3 2660.17 830.44 1527.59 -396.87"/><line class="cls-6" x1="990.59" y1="389.34" x2="1032.63" y2="347.31"/><circle class="cls-3" cx="1515.47" cy="686.2" r="25.69"/><polyline class="cls-4" points="117.11 2000.39 1371.13 352.74 3020.22 352.74 1766.2 2000.39"/><polygon class="cls-5" points="1223.56 855.68 1237.1 810.96 1191.6 821.59 1223.56 855.68"/><line class="cls-7" x1="1682.81" y1="448.14" x2="1777.39" y2="353.57"/></svg>