<svg id="Layer_1" data-name="Layer 1" xmlns="http://www.w3.org/2000/svg" viewBox="0 0 1920 1080"><defs><style>.cls-1,.cls-2,.cls-3,.cls-4,.cls-5,.cls-6,.cls-7{fill:none;}.cls-1{stroke:#d7e827;}.cls-1,.cls-2,.cls-3,.cls-4,.cls-6,.cls-7{stroke-miterlimit:10;}.cls-1,.cls-6{stroke-width:4px;opacity:0.35;}.cls-2{stroke:#76ff5f;opacity:0.61;}.cls-2,.cls-3,.cls-7{stroke-width:3px;}.cls-3{stroke:#ff931e;}.cls-3,.cls-7{opacity:0.46;}.cls-4{stroke:#0010bf;stroke-width:2px;opacity:0.29;}.cls-6{stroke:#e99000;}.cls-7{stroke:#00bee8;}</style></defs><title>pattern</title><circle class="cls-1" cx="1095.5" cy="179.5" r="23.5"/><polyline class="cls-2" points="1774.24 279.35 1792.25 279.39 1792.21 297.21 1810.41 297.25 1810.37 315.63"/><line class="cls-3" x1="1931.89" y1="196.36" x2="1907.39" y2="220.86"/><line class="cls-4" x1="1805.15" y1="159.73" x2="1767.62" y2="197.63"/><rect class="cls-5" x="1606.93" y="473.76" width="271" height="362.87"/><circle class="cls-1" cx="1632.43" cy="576.14" r="23.5"/><circle class="cls-6" cx="1864.93" cy="552.64" r="11"/><polyline class="cls-2" points="1734.28 547.83 1762.6 547.89 1762.54 575.92 1791.15 575.98 1791.1 604.88"/><polyline class="cls-2" points="1703.24 800.35 1721.25 800.39 1721.21 818.21 1739.41 818.25 1739.37 836.63"/><line class="cls-3" x1="1860.89" y1="717.36" x2="1836.39" y2="741.86"/><line class="cls-4" x1="1734.15" y1="680.73" x2="1696.62" y2="718.63"/><rect class="cls-5" x="432.93" y="208.76" width="271" height="362.87"/><circle class="cls-1" cx="85.5" cy="932.5" r="23.5"/><circle class="cls-6" cx="74" cy="656" r="11"/><polygon class="cls-7" points="91.16 161.88 80.35 150.13 85.11 134.9 100.69 131.41 111.5 143.15 106.74 158.39 91.16 161.88"/><polyline class="cls-2" points="702.28 615.83 730.6 615.89 730.54 643.92 759.15 643.98 759.1 672.88"/><polyline class="cls-2" points="513.24 318.35 531.25 318.39 531.21 336.21 549.41 336.25 549.37 354.63"/><line class="cls-3" x1="686.89" y1="452.36" x2="662.39" y2="476.86"/><line class="cls-4" x1="283.15" y1="996.73" x2="245.62" y2="1034.63"/><rect class="cls-5" x="959.93" y="141.76" width="271" height="362.87"/><circle class="cls-1" cx="961.5" cy="359.5" r="23.5"/><circle class="cls-6" cx="1217.93" cy="220.64" r="11"/><polygon class="cls-7" points="1146.16 57.88 1135.35 46.13 1140.12 30.9 1155.69 27.41 1166.5 39.15 1161.74 54.39 1146.16 57.88"/><polyline class="cls-2" points="1056.24 468.35 1074.25 468.39 1074.21 486.21 1092.41 486.25 1092.37 504.63"/><line class="cls-3" x1="1213.89" y1="385.36" x2="1189.39" y2="409.86"/><line class="cls-4" x1="1087.15" y1="348.73" x2="1049.62" y2="386.63"/><rect class="cls-5" x="1355.93" y="-47.24" width="271" height="362.87"/><circle class="cls-1" cx="1381.43" cy="55.14" r="23.5"/><circle class="cls-6" cx="1613.93" cy="31.64" r="11"/><polyline class="cls-2" points="1483.28 26.83 1511.6 26.89 1511.54 54.92 1540.15 54.98 1540.1 83.88"/><polyline class="cls-2" points="1313.24 240.35 1331.25 240.39 1331.21 258.21 1349.41 258.25 1349.37 276.63"/><line class="cls-3" x1="1609.89" y1="196.36" x2="1585.39" y2="220.86"/><line class="cls-4" x1="1492.15" y1="177.73" x2="1454.62" y2="215.63"/><rect class="cls-5" x="606.93" y="489.76" width="271" height="362.87"/><circle class="cls-1" cx="876.5" cy="997.5" r="23.5"/><circle class="cls-6" cx="1039" cy="600" r="11"/><polygon class="cls-7" points="838.16 532.88 827.35 521.13 832.12 505.9 847.69 502.41 858.5 514.15 853.74 529.39 838.16 532.88"/><polyline class="cls-2" points="346.28 771.83 374.6 771.89 374.54 799.92 403.15 799.98 403.1 828.88"/><polyline class="cls-2" points="578.24 865.35 596.25 865.39 596.21 883.21 614.41 883.25 614.37 901.63"/><line class="cls-3" x1="860.89" y1="733.36" x2="836.39" y2="757.86"/><line class="cls-4" x1="587.15" y1="653.73" x2="549.62" y2="691.63"/><rect class="cls-5" x="1337.93" y="336.76" width="271" height="362.87"/><circle class="cls-1" cx="1363.43" cy="439.14" r="23.5"/><circle class="cls-6" cx="1703" cy="416" r="11"/><polygon class="cls-7" points="1514.16 437.88 1503.35 426.13 1508.12 410.9 1523.69 407.41 1534.5 419.15 1529.74 434.39 1514.16 437.88"/><polyline class="cls-2" points="1490.28 893.83 1518.6 893.89 1518.54 921.92 1547.15 921.98 1547.1 950.88"/><polyline class="cls-2" points="1434.24 663.35 1452.25 663.39 1452.21 681.21 1470.41 681.25 1470.37 699.63"/><line class="cls-4" x1="1465.15" y1="543.73" x2="1427.62" y2="581.63"/><rect class="cls-5" x="1036.93" y="652.76" width="271" height="362.87"/><circle class="cls-1" cx="1062.43" cy="755.14" r="23.5"/><circle class="cls-6" cx="1294.93" cy="731.64" r="11"/><polygon class="cls-7" points="526.16 557.88 515.35 546.13 520.12 530.9 535.69 527.41 546.5 539.15 541.74 554.39 526.16 557.88"/><polyline class="cls-2" points="1164.28 726.83 1192.6 726.89 1192.54 754.92 1221.15 754.98 1221.1 783.88"/><polyline class="cls-2" points="1398.24 961.35 1416.25 961.39 1416.21 979.21 1434.41 979.25 1434.37 997.63"/><line class="cls-3" x1="1290.89" y1="896.36" x2="1266.39" y2="920.86"/><line class="cls-4" x1="1164.15" y1="859.73" x2="1126.62" y2="897.63"/><rect class="cls-5" x="662.93" y="14.76" width="271" height="362.87"/><circle class="cls-1" cx="688.43" cy="117.14" r="23.5"/><circle class="cls-6" cx="920.93" cy="93.64" r="11"/><polygon class="cls-7" points="821.16 46.88 810.35 35.13 815.12 19.9 830.69 16.41 841.5 28.15 836.74 43.39 821.16 46.88"/><polyline class="cls-2" points="1202.28 518.83 1230.6 518.89 1230.54 546.92 1259.15 546.98 1259.1 575.88"/><polyline class="cls-2" points="759.24 341.35 777.25 341.39 777.21 359.21 795.41 359.25 795.37 377.63"/><line class="cls-3" x1="216.89" y1="840.36" x2="192.39" y2="864.86"/><line class="cls-4" x1="790.15" y1="221.73" x2="752.62" y2="259.63"/><rect class="cls-5" x="155.93" y="215.76" width="271" height="362.87"/><circle class="cls-1" cx="181.43" cy="318.14" r="23.5"/><circle class="cls-6" cx="334" cy="241" r="11"/><polygon class="cls-7" points="184.16 46.88 173.35 35.13 178.12 19.9 193.69 16.41 204.5 28.15 199.74 43.39 184.16 46.88"/><polyline class="cls-2" points="425.28 117.83 453.6 117.89 453.54 145.92 482.15 145.98 482.1 174.88"/><polyline class="cls-2" points="252.24 542.35 270.25 542.39 270.21 560.21 288.41 560.25 288.37 578.63"/><line class="cls-3" x1="409.89" y1="459.36" x2="385.39" y2="483.86"/><line class="cls-4" x1="283.15" y1="422.73" x2="245.62" y2="460.63"/></svg>